# xmcd
#
# Track frame offsets: 
#        150
#        6008
#        18559
#        20587
#        35757
#        55923
#        75368
#        93167
#        94400
#        112271
#        129451
#        145342
#        161979
#        166957
#        182713
#        201339
#        224943
#        243456
#        251909
#        271706
#        290287
#
# Disc length: 4113 seconds
#
# Revision: 0
# Processed by: cddbd v1.5.2PL0 Copyright (c) Steve Scherf et al.
# Submitted via: ExactAudioCopy v1.1
#
DISCID=3a100f15
DTITLE=Twista - Adrenaline Rush 2007
DYEAR=2007
DGENRE=Rap
TTITLE0=Adrenaline Rush The Saga Continues...
TTITLE1=Charged (Explicit)
TTITLE2=What T Is? (Skit)
TTITLE3=I Ain't That N***a
TTITLE4=Say Say
TTITLE5=Whip Game Proper
TTITLE6=No Pistols
TTITLE7=Phone (Skit)
TTITLE8=Love Rehab
TTITLE9=Seven Day Hustle
TTITLE10=Creep Fast
TTITLE11=Wrist Stay Rocky
TTITLE12=What Would Twista Do If He Wasn't Rappin
TTITLE13=Give It Up
TTITLE14=The Come Up
TTITLE15=Ain't No H*es
TTITLE16=Pimp Like Me
TTITLE17=Ya With It Or Ya Ain't (Skit)
TTITLE18=Trouble
TTITLE19=Be A Hustla
TTITLE20=Heist
EXTD=
EXTT0=
EXTT1=
EXTT2=
EXTT3=
EXTT4=
EXTT5=
EXTT6=
EXTT7=
EXTT8=
EXTT9=
EXTT10=
EXTT11=
EXTT12=
EXTT13=
EXTT14=
EXTT15=
EXTT16=
EXTT17=
EXTT18=
EXTT19=
EXTT20=
PLAYORDER=
